# xmcd
#
# Track frame offsets: 
#        150
#        21165
#        41280
#        64185
#        80732
#        96790
#        118892
#        140095
#        156542
#        170857
#
# Disc length: 2549 seconds
#
# Revision: 1
# Processed by: cddbd v1.5.2PL0 Copyright (c) Steve Scherf et al.
# Submitted via: ExactAudioCopy v1.0b6
#
DISCID=9109f30a
DTITLE=梁靜茹 - 一夜長大
DYEAR=1999
DGENRE=Pop
TTITLE0=對不起我愛你 (Sorry, I Love You)
TTITLE1=一夜長大 (Growing Up)
TTITLE2=彩虹 (Rainbow)
TTITLE3=迷路 (Silk Road)
TTITLE4=快樂一整天 (Happy for the Day)
TTITLE5=只能抱著妳 (I Could Only Embrace You)
TTITLE6=轉圏圏 (Go Round and Round)
TTITLE7=純情豔陽天 (Those Innocent Sunny Days)
TTITLE8=橡皮筋 (Rubber Band)
TTITLE9=紙條 (A Slip of Paper)
EXTD=
EXTT0=
EXTT1=
EXTT2=
EXTT3=
EXTT4=
EXTT5=
EXTT6=
EXTT7=
EXTT8=
EXTT9=
PLAYORDER=
